# xmcd
# Copyright (C) 1995-1998 Ti Kan
#
# Track frame offsets:
#       150
#       14025
#       28275
#       39225
#       65627
#
# Disc length: 962 seconds
#
# Revision: 1
# Processed by: cddbd v1.4PL0 Copyright (c) Steve Scherf et al.
# Submitted via: CD-Transfer v1.0
#
DISCID=4103c005
DTITLE=Suddendaze - Failing This
DYEAR=2002
DGENRE=
TTITLE0=Failing This
TTITLE1=Stroll 'n' Struggle
TTITLE2=Oh Baby!
TTITLE3=Failing This (Soft Version)
TTITLE4=Data Track
EXTD=
EXTT0=
EXTT1=
EXTT2=
EXTT3=
EXTT4=
PLAYORDER=
